<svg width="1193" height="229" viewBox="0 0 1193 229" fill="none" xmlns="http://www.w3.org/2000/svg">
<path d="M378.478 222.264C379.654 221.772 381.007 221.979 381.981 222.802C382.957 223.626 383.39 224.927 383.105 226.172C382.82 227.417 381.864 228.399 380.628 228.714C378.901 229.153 377.127 228.184 376.562 226.49C375.998 224.796 376.834 222.953 378.478 222.264ZM626.075 18.8376C649.652 18.3322 661.676 22.2892 683.788 31.3151C681.142 39.2209 672.611 82.1374 669.015 85.0504C668.1 85.7888 667.356 85.8184 666.254 85.6413C665.588 85.5339 664.595 85.1528 664.214 84.5299C660.908 79.1245 664.401 54.0806 653.121 38.8131C648.744 32.7579 642.083 28.754 634.69 27.7262C618.736 25.4857 603.351 35.7034 601.39 51.8893C597.43 84.6116 645.184 93.2698 661.289 116.709C680.313 144.398 669.874 177.92 644.414 196.627C625.063 210.845 605.447 214.217 582.536 210.813C570.517 208.936 559.67 205.143 550.056 197.208C535.074 184.663 532.849 161.865 545.169 146.7C551.388 139.045 566.553 132.781 574.837 140.406C587.04 153.277 571.194 165.968 572.244 181.723C573.232 208.757 609.17 208.541 622.859 191.912C635.35 176.562 635.308 160.111 620.426 146.245C600.276 127.47 562.58 115.836 561.146 83.7799C559.494 46.8506 591.339 21.3197 626.075 18.8376ZM127.423 18.7711C151 18.2658 163.024 22.2238 185.136 31.2497C182.49 39.1559 173.959 82.0727 170.362 84.985C169.448 85.7234 168.703 85.753 167.602 85.5758C166.936 85.4685 165.943 85.0873 165.562 84.4645C162.256 79.0591 165.748 54.0152 154.469 38.7477C150.091 32.6924 143.431 28.6886 136.038 27.6608C120.084 25.4203 104.699 35.6371 102.737 51.8229C98.7775 84.5457 146.531 93.2042 162.637 116.643C181.661 144.332 171.222 177.854 145.762 196.561C126.411 210.78 106.794 214.151 83.8838 210.748C71.8646 208.871 61.0176 205.078 51.4033 197.142C36.421 184.597 34.1959 161.798 46.5166 146.633C52.7361 138.978 67.9012 132.716 76.1846 140.34C88.3877 153.211 72.5413 165.903 73.5918 181.658C74.5797 208.692 110.517 208.475 124.207 191.845C136.698 176.496 136.656 160.044 121.773 146.178C101.623 127.404 63.9281 115.77 62.4941 83.7145C60.8418 46.7852 92.6871 21.2533 127.423 18.7711ZM259.626 8.00064C262.112 8.57493 261.659 8.11774 263.335 9.79068C265.332 17.2802 236.002 123.68 233.945 141.378C239.567 135.537 245.304 129.808 251.154 124.196C259.652 116.2 273.814 105.156 279.865 95.2946C284.206 88.2203 272.466 84.8889 271.018 80.6286C271.082 80.3701 271.362 78.9741 271.534 78.943C279.744 77.4741 322.581 74.9944 327.131 80.5368C327.035 81.8351 326.151 83.6952 325.049 83.9411C299.826 89.5674 286.891 104.464 268.141 122.352C273.406 140.119 280.984 158.145 285.913 176.184C287.133 180.649 290.582 190.686 296.24 190.735C303.035 190.794 305.286 179.083 309.685 175.525C311.55 174.029 315.393 173.358 316.961 175.367C316.835 178.38 316.094 179.556 314.738 182.275C308.823 194.013 301.141 203.556 288.842 208.874C250.935 225.264 246.043 170.85 236.462 147.374C230.533 153.351 229.237 158.981 227.334 167.05C224.083 180.833 221.198 194.695 217.863 208.46C212.661 208.474 183.304 209.556 180.606 207.991C180.121 207.709 180.252 207.165 180.245 206.641C180.159 199.651 185.661 182.79 187.537 175.325C191.106 161.128 217.734 56.4569 216.862 49.8708C215.844 42.1789 207.444 41.9885 205.88 36.2555C208.201 33.3026 218.06 35.3395 225.888 31.4547C241.871 27.1621 248.834 18.2728 259.626 8.00064ZM1115.19 7.48208C1117.68 7.97506 1117.4 7.532 1118.91 9.15103C1120.13 15.5489 1097.92 105.917 1094.4 120.796C1102.02 104.417 1114.68 84.3727 1134.13 81.1422C1139.5 80.2497 1147.85 81.1704 1152.15 84.7624C1167.55 97.6435 1159.25 123.822 1155.12 140.061L1147.22 169.919C1146.33 173.318 1143.24 184.35 1144.12 186.91C1149.23 201.655 1160.97 177.365 1162.78 174.136C1164.76 174.067 1168.36 174.499 1170.46 174.693C1164.89 188.038 1158.34 199.834 1145.29 207.211C1134.3 213.427 1117.76 214.169 1111.07 201.422C1104.88 189.605 1108.27 176.879 1111.84 164.93C1112.67 154.243 1128.16 117.107 1124.23 104.208C1123.97 103.368 1122.91 102.534 1121.97 102.308C1120.39 101.928 1116.64 102.945 1115.48 103.956C1093.24 123.27 1080.5 182.678 1074.62 208.43L1037.51 208.433C1039.25 198.546 1043.72 182.988 1046.18 172.552L1062.68 101.43C1066.23 86.5665 1072.81 63.3711 1073.22 47.9059C1073.39 41.412 1064.13 38.6272 1062.85 33.4499C1063 33.0979 1063.17 32.6991 1063.36 32.2526C1065.87 31.9438 1071.6 31.1012 1073.75 30.7887C1093.42 27.9431 1101.43 19.9755 1115.19 7.48208ZM742.795 74.3278C743.328 74.2356 744.042 74.6299 744.575 74.8532C746.198 77.9688 738.223 115.016 737.14 120.598C744.69 103.286 763.175 77.935 785.305 80.8288C804.056 83.28 805.503 98.4133 803.681 113.954C809.251 103.515 816.063 94.0337 825.859 87.0993C836.564 79.5169 854.34 77.0413 862.835 89.0973C865.675 93.1291 868.03 102.192 867.606 107.208C865.542 131.934 856.096 155.762 851.477 180.12C850.871 183.304 850.012 187.993 851.822 190.716C861.963 196.95 865.802 167.788 875.356 175.101C874.927 191.045 851.005 213.132 834.27 211.256C808.906 209.842 814.555 182.213 818.225 165.23C820.356 155.35 835.431 109.851 829.311 103.415C828.427 102.471 827.191 101.944 825.901 101.964C822.384 102.011 818.878 105.898 816.626 108.32C796.506 134.346 791.136 177.677 782.12 208.47C769.823 208.43 757.526 208.451 745.229 208.535L759.095 153.367C762.255 141.087 765.833 128.693 768.104 116.252C768.86 112.08 769.672 104.226 764.938 102.439C763.654 101.954 760.341 102.453 759.354 103.354C733.647 126.822 729.069 176.766 719.721 208.388L682.969 208.506C689.708 176.427 698.105 144.811 705.129 112.805C706.061 108.558 704.754 104.316 701.878 101.135C699.813 98.8528 695.841 96.5618 695.157 93.6901C697.416 90.6342 712.401 90.8167 718.389 88.5348C728.99 84.4951 733.767 80.7659 742.795 74.3278ZM942.579 74.154C944.856 74.5241 946.176 75.9055 945.958 78.3112C945.328 85.3043 943.233 92.4612 941.665 99.3463L931.875 143.222C929.95 151.55 918.228 186.99 925.185 192.22C930.628 193.175 938.595 179.275 941.332 174.981C943.233 173.95 946.703 174.434 949.004 174.56C941.587 191.329 936.313 200.595 919.862 209.144C912.373 212.069 898.798 212.763 892.943 206.512C879.114 191.757 889.334 167.388 892.895 150.407C895.649 137.283 899.567 125.203 901.801 112.094C902.636 107.191 891.641 100.883 891.593 97.2145C893.149 95.0372 903.351 94.5281 906.735 93.8444C922.974 90.5656 930.355 84.318 942.579 74.154ZM472.337 8.6647C475.814 14.3357 462.726 61.9998 460.59 70.7604L442.941 145.324C440.74 154.344 430.872 185.21 436.434 191.573C445.021 195.216 450.98 168.753 459.979 174.91C460.06 187.906 442.789 204.095 431.347 209.141C424.908 211.479 416.8 212.191 410.371 209.847C391.804 203.08 397.493 178.23 401.029 163.696C402.829 156.301 404.522 148.982 406.295 141.633L421.224 79.9274C423.356 71.3311 427.072 59.53 427.359 50.7057C427.414 49.0311 425.346 44.6986 424.541 42.9352C422.144 41.7181 418.303 39.5988 416.969 37.2877C417.367 32.8919 425.72 33.8966 429.202 33.2067C445.876 29.9023 457.941 18.889 470.563 8.01529L472.337 8.6647ZM1024.84 39.5524C1027 40.1197 1026.66 39.7045 1028.05 41.2018C1028.5 46.6865 1020.5 79.617 1018.32 85.611C1026.47 85.2348 1036.99 85.5213 1045.32 85.5055C1043.91 88.3899 1042.25 93.5401 1041.13 96.7594C1033.1 96.9639 1024.42 96.7934 1016.34 96.777C1013.12 108.632 997.316 172.592 998.29 180.333C998.665 183.282 999.889 186.691 1002.37 188.523C1004.13 189.833 1006.61 190.121 1008.73 189.811C1015.94 188.76 1021.3 179.486 1025.35 174.023C1027.83 173.959 1028.93 173.883 1031.37 174.401L1031.78 175.554C1030.22 183.176 1021.14 193.838 1015.7 199.325C1001.64 211.542 976.929 218.522 965.099 199.57C962.144 194.831 960.515 189.381 960.382 183.795C960.249 175.119 964.645 158.428 966.728 149.68C971.051 132.289 975.24 114.864 979.284 97.4069C975.082 97.2171 969.422 97.9674 966.243 95.6735C964.893 93.3691 965.237 94.1678 965.146 91.4411C965.885 89.1998 979.818 83.4118 982.96 81.8034C994.93 75.6789 1004.11 65.4472 1012.17 54.8717C1016.73 48.8899 1019.05 44.6678 1024.84 39.5524ZM384.502 73.8991C388.516 81.5349 362.117 170.802 361.679 184.875C361.628 186.49 362.199 190.469 363.675 191.216C372.561 195.717 375.734 173.161 384.987 173.55C390.484 176.567 384.783 183.225 382.697 186.741C376.961 196.413 370.058 203.396 360.032 208.484C359.596 208.684 359.155 208.871 358.706 209.042C351.676 211.723 343.802 212.097 336.812 208.957C317.768 200.402 326.627 171.613 330.407 156.076L337.359 127.589C338.607 122.382 340.719 114.317 339.974 109.032C339.197 103.52 332.918 103.436 330.682 97.5329C333.194 94.8219 349.944 93.5887 356.542 90.8717C368.913 85.7776 373.335 79.084 383.329 73.0045L384.502 73.8991ZM544.381 8.29068C545.496 9.11979 546.633 10.1774 546.685 11.6374C546.935 18.7375 541.331 37.0371 539.447 44.9333C536.191 58.5817 533.273 72.2972 529.907 85.9245C526.166 101.071 505.183 178.242 507.042 188.582C507.353 190.308 507.86 190.814 509.23 191.746C517.558 191.697 521.811 172.84 530.853 173.929L531.555 174.941C531.461 188.184 514.489 204.679 502.689 209.443C502.042 209.664 501.383 209.849 500.715 209.998C475.715 215.539 466.292 200.181 470.279 177.569C473.076 161.71 477.37 146.716 481.201 131.137L493.747 79.3219C496.015 70.185 499.474 58.4922 499.777 49.0895C499.997 42.2809 490.773 41.2876 489.689 36.193C491.189 33.9123 503.14 33.2538 506.847 32.3473C523.942 28.1674 532.205 16.521 544.089 8.1022C544.166 8.15019 544.302 8.23188 544.381 8.29068ZM10.1963 116.09C11.3224 116.09 12.2353 117.002 12.2354 118.129V120.185C12.2354 122.438 14.0618 124.264 16.3145 124.264H18.3496C19.478 124.265 20.3926 125.18 20.3926 126.308C20.3926 127.437 19.4773 128.352 18.3486 128.352H16.3135C14.0612 128.352 12.2354 130.178 12.2354 132.43V134.488C12.2354 135.614 11.3225 136.528 10.1963 136.528C9.06988 136.528 8.15625 135.614 8.15625 134.488V132.43C8.15625 130.178 6.33041 128.352 4.07812 128.352H2.04395C0.915217 128.352 0.000181401 127.437 0 126.308C0 125.179 0.915106 124.264 2.04395 124.264H4.07812C6.3303 124.264 8.15607 122.438 8.15625 120.186V118.129C8.15633 117.002 9.06993 116.09 10.1963 116.09ZM932.662 18.7897C950.608 16.748 960.277 28.4479 955.161 45.5817C952.624 54.0641 945.546 58.558 938.136 61.9958C933.262 62.628 929.09 62.9785 924.392 61.1159C920.268 59.5292 916.974 56.3287 915.261 52.2526C909.219 37.8009 919.366 24.2085 932.662 18.7897ZM375.499 18.0934C386.133 17.4333 393.922 23.4022 395.457 34.1227C396.423 40.5109 394.769 47.0186 390.869 52.1637C386.713 57.6789 380.758 61.4589 373.91 62.4499C352.682 62.9098 346.98 46.1555 357.513 28.7233C361.243 22.5485 368.451 19.2396 375.499 18.0934ZM1182.58 18.0006C1183.71 18.0009 1184.62 18.9135 1184.62 20.0397V22.0963C1184.62 24.349 1186.45 26.1752 1188.7 26.1754H1190.74C1191.86 26.1758 1192.78 27.091 1192.78 28.2194C1192.78 29.348 1191.86 30.2633 1190.74 30.2633H1188.7C1186.45 30.2633 1184.62 32.089 1184.62 34.3415V36.3991C1184.62 37.5253 1183.71 38.4389 1182.58 38.4391C1181.46 38.4391 1180.54 37.5255 1180.54 36.3991V34.3415C1180.54 32.0892 1178.72 30.2633 1176.46 30.2633H1174.43C1173.3 30.2633 1172.39 29.3481 1172.39 28.2194C1172.39 27.0905 1173.3 26.1754 1174.43 26.1754H1176.46C1178.72 26.1754 1180.54 24.3495 1180.54 22.0973V20.0397C1180.54 18.9134 1181.46 18.0006 1182.58 18.0006ZM562.178 0.128567C564.099 -0.385828 566.088 0.686379 566.719 2.57583C567.35 4.46524 566.404 6.52083 564.562 7.26822C563.264 7.79427 561.782 7.55473 560.715 6.64712C559.647 5.73932 559.171 4.31256 559.479 2.944C559.785 1.5755 560.826 0.490759 562.178 0.128567Z" fill="white" style="fill:white;fill-opacity:1;"/>
</svg>
