<svg width="1240" height="1240" viewBox="0 0 1240 1240" fill="none" xmlns="http://www.w3.org/2000/svg">
<path d="M659.167 253.163C748.95 251.243 794.74 266.277 878.943 300.57C868.868 330.605 836.381 493.67 822.685 504.733C819.203 507.539 816.367 507.649 812.171 506.976C809.635 506.568 805.854 505.12 804.401 502.753C791.812 482.216 805.116 387.065 762.161 329.058C745.491 306.052 720.129 290.842 691.976 286.937C631.222 278.424 572.635 317.242 565.164 378.738C550.085 503.064 731.934 535.96 793.264 625.013C865.709 730.215 825.959 857.577 729.005 928.652C655.316 982.675 580.612 995.483 493.366 982.55C447.596 975.42 406.292 961.008 369.68 930.858C312.626 883.195 304.153 796.576 351.071 738.959C374.755 709.874 432.503 686.077 464.047 715.047C510.52 763.947 450.173 812.166 454.174 872.026C457.934 974.74 594.792 973.92 646.923 910.735C694.49 852.418 694.328 789.911 637.655 737.23C560.922 665.897 417.373 621.696 411.913 499.904C405.621 359.596 526.89 262.594 659.167 253.163Z" fill="white"/>
<path d="M299.978 279.666C299.978 294.393 311.916 306.332 326.644 306.332H340C347.364 306.332 353.333 312.301 353.333 319.665C353.333 327.029 347.364 332.998 340 332.998H326.645C311.917 332.998 299.978 344.937 299.978 359.666V373C299.978 380.364 294.008 386.333 286.645 386.333C279.281 386.333 273.312 380.364 273.312 373V359.654C273.312 344.932 261.377 332.998 246.656 332.998H233.333C225.969 332.998 220 327.029 220 319.665C220 312.301 225.969 306.332 233.333 306.332H246.656C261.377 306.332 273.312 294.398 273.312 279.676V266.333C273.312 258.969 279.281 253 286.645 253C294.008 253 299.978 258.969 299.978 266.333V279.666Z" fill="white"/>
<path d="M966.646 870.141C966.646 884.869 978.584 896.807 993.312 896.807H1006.67C1014.03 896.807 1020 902.777 1020 910.14C1020 917.504 1014.03 923.473 1006.67 923.473H993.313C978.585 923.473 966.646 935.413 966.646 950.141V963.475C966.646 970.839 960.676 976.808 953.312 976.808C945.949 976.808 939.979 970.839 939.979 963.475V950.129C939.979 935.408 928.045 923.473 913.324 923.473H900.001C892.637 923.473 886.668 917.504 886.668 910.14C886.668 902.777 892.637 896.807 900.001 896.807H913.324C928.045 896.807 939.979 884.873 939.979 870.152V856.808C939.979 849.445 945.949 843.475 953.312 843.475C960.676 843.475 966.646 849.445 966.646 856.808V870.141Z" fill="white"/>
</svg>
