<svg width="1061" height="300" viewBox="0 0 1061 300" fill="none" xmlns="http://www.w3.org/2000/svg">
<path d="M942.628 98.4744C967.945 96.4026 1005.33 109.186 1003.48 140.116C1002.51 156.35 989.98 165.971 974.073 164.612C968.563 164.186 963.462 161.557 959.913 157.32C947.657 142.735 963.036 132.259 964 121.138C965.326 105.833 934.613 106.615 927.033 115.522C892.963 155.564 961.987 177.113 979.312 196.989C1004.03 225.351 998.427 253.866 975.899 277.979C959.607 293.698 933.065 299.742 910.752 299.176C893.382 298.078 878.445 295.697 864.295 284.325C842.742 267.94 847.651 228.5 877.69 227.54C896.608 226.936 907.515 243.738 895.4 260.08C877.305 284.478 920.95 298.033 935.633 279.773C955.695 254.82 934.357 236.577 912.945 223.809C898.592 214.919 883.178 202.828 875.094 187.691C858.314 156.28 878.138 117.337 910.122 105.582C922.373 100.917 929.408 99.8382 942.628 98.4744ZM199.977 15.4891C221.811 14.8032 238.25 20.2508 258.49 27.3358C262.395 28.7029 270.19 30.5177 273.501 32.3797C274.093 33.3768 274.296 33.8032 274.315 34.9754C274.415 40.9141 271.367 47.3773 270.071 53.1522C268.121 61.8468 259.676 107.269 254.85 111.875C252.766 113.862 247.741 112.955 245.146 112.788C243.625 106.314 243.705 99.5044 243.205 93.1561C241.067 65.9989 233.069 34.1144 201.584 28.9715C191.481 27.3215 175.863 28.6946 167.427 35.157C159.557 41.1865 150.178 52.7436 148.646 62.7313C145.122 84.0431 155.752 97.1591 172.737 108.204C176.936 110.816 181.587 114.932 185.806 117.255C226.283 139.542 265.773 163.326 256.533 217.076C251.765 244.813 236.857 263.336 213.531 278.971C186.764 296.911 150.373 302.535 118.803 297.081C99.2851 293.11 83.0897 288.634 67.5625 275.159C38.0298 249.658 49.397 190.768 92.0498 188.367C111.231 187.287 121.855 202.948 116.185 220.724C114.388 225.061 111.004 229.181 109.46 233.586C99.0514 263.276 114.227 289.876 147.852 286.264C174.592 283.393 198.113 261.769 195.663 233.363C195.156 227.478 193.858 221.371 190.772 216.203C170.997 188.496 135.055 177.889 110.031 155.753C97.2224 144.19 88.202 130.09 87.1641 112.585C83.7469 54.9476 132.705 19.3627 186.153 15.7293C188.252 15.2606 197.535 15.5656 199.977 15.4891ZM735.916 0.214661C738.45 0.178382 739.561 0.113715 741.171 2.13947C742.69 8.86817 734.884 38.039 733.059 46.6424L699.805 200.469C695.984 218.88 690.978 237.713 687.871 256.279C687.367 259.362 687.146 265.055 689.765 267.322C701.375 277.368 715.848 248 719.322 241.981C723.013 242.408 726.126 243.004 729.776 243.719C728.438 251.155 724.226 258.493 720.468 264.992C712.027 279.603 697.714 290.867 682 296.5C675.583 299.737 661.534 299.176 654.396 297.582C645.768 295.692 638.268 290.398 633.603 282.9C620.825 262.39 634.136 228.717 638.489 206.928C646.086 168.965 654.838 130.924 663.653 93.1981C664.849 88.0614 666.006 82.9149 667.117 77.7596C669.492 66.7959 671.516 57.9341 661.397 49.952C657.027 46.5056 650.252 44.9154 651.806 38.9852C654.017 36.7963 657.911 36.8002 660.876 36.6971C686.67 35.8037 710.224 24.232 728.257 5.95099C730.337 3.84411 733.252 1.56426 735.916 0.214661ZM852.917 0.2547C855.746 -0.0802995 860.507 -0.116419 859.912 4.2879C857.798 19.9908 853.382 35.501 849.992 50.9608L835.882 115.014C833.535 126.161 832.254 135.694 829.499 147.373L814.742 212.732C811.511 226.958 807.797 241.636 805.519 256.032C804.935 258.432 805.247 264.31 806.777 266.221C817.215 279.212 835.5 242.965 835.575 242.816C835.575 242.816 845.525 243.276 847.917 243.853C841.194 266.216 824 285.685 802.475 294.677C785.95 301.319 760.247 300.25 750.564 283.257C737.861 260.953 750.593 230.962 755.15 207.981C755.87 204.361 756.851 200.8 757.65 197.246L784.47 78.2195C787.23 66.031 789.051 54.1246 775.542 47.4354C772.35 45.6073 765.978 41.7421 770.405 37.6961C771.086 37.0732 780.847 36.6618 782.242 36.6102C802.849 35.8495 823.846 26.0628 839.328 12.7518C843.688 9.00384 848.059 3.07472 852.917 0.2547ZM597.355 95.9236C605.445 97.2262 602.525 103.601 601.448 109.018L597.339 129.322C589.419 170.344 578.415 212.031 571.357 253.345C570.462 258.594 568.66 268.687 576.233 268.866C587.9 269.14 600 243.225 600.678 242.834C605.235 242.766 607.192 242.895 611.704 243.538C609.935 252.773 606.607 257.018 602.146 264.721C592.202 281.884 580.5 290.5 563.518 295.941C559.181 297.145 554.725 297.888 550.229 298.158C539.271 298.85 529.991 297.273 521.646 289.811C500.847 271.213 514.391 238.056 518.869 215.31C521.131 203.193 524.793 187.065 527.384 175.508C531.891 155.375 536.431 145.811 515.773 133.949C514.64 133.297 514.26 131.703 514.209 130.337C517.236 125.41 527.384 126.499 533.801 126.024C552.168 122.371 566.851 119.799 582.146 107.736C586.97 103.932 592.52 98.9494 597.355 95.9236ZM392.968 0.148254C394.815 -0.0524063 395.241 -0.0539097 397.085 0.171692C402.255 4.04596 390.406 45.7016 388.661 53.9734L375.328 115.45C374.554 119.103 372.619 128.638 372.27 131.959C371.381 140.399 357.876 188.73 359.197 193.149C361.815 192.516 383.902 172.357 387.643 169.092C400.052 158.26 413.543 147.117 425.326 135.648C429.781 131.312 434.442 123.599 430.415 117.905C427.111 112.407 414.849 112.743 416.092 105.095C416.29 103.877 417.473 103.032 418.432 102.466C421.936 101.881 429.024 102.239 432.888 102.25L458.945 102.189C472.608 102.131 486.138 101.745 499.779 101.329C506.431 101.127 510.098 110.445 498.633 112.276C472.103 116.514 450.047 134.444 430.51 151.705C425.983 155.704 417.811 161.804 414.531 166.588L414.394 166.793C417.185 172.792 420.45 182.21 423.032 188.618C430.912 208.172 437.938 228.093 445.968 247.621C448.396 253.713 453.186 264.81 460.209 266.898C477.599 272.069 477 238.5 495.851 243.534C497.5 243.534 494.917 250.348 493.663 253.54C483 273 478.5 282.5 457.956 291.357C413 303.403 388.964 268.435 373.093 227.838C369.991 219.905 368.093 212.077 364.361 204.713C358.828 207.219 355.781 209.475 354.104 215.543C352.341 221.927 351.265 228.264 349.767 234.651C346.355 249.199 343.248 263.72 340.347 278.379C339.674 281.749 338.008 289.899 335.768 292.352C331.506 294.115 283.52 293.443 275.9 293.005C277.031 286.686 280.042 276.432 281.578 269.654L292.73 219.303C299.692 188.832 305.644 158.094 312.647 127.358C317.084 106.05 324.343 84.8728 325.488 63.0955C326.245 48.7137 308.1 48.17 307.687 40.3572C308.098 39.3376 308.37 38.0195 309.43 37.783C315.9 36.303 322.946 36.8369 329.513 35.8104C349.519 32.6837 366.81 23.4255 381.627 9.78302C385.362 6.34353 388.684 2.87472 392.968 0.148254ZM1031.18 220.559C1033.05 219.639 1035.26 219.8 1036.97 220.977C1038.68 222.155 1039.61 224.165 1039.42 226.231C1039.22 228.297 1037.93 230.095 1036.02 230.929C1033.17 232.177 1029.85 230.924 1028.54 228.106C1027.22 225.289 1028.4 221.937 1031.18 220.559ZM13.6611 164.967C15.1701 164.967 16.3934 166.19 16.3936 167.699V170.457C16.3937 173.475 18.841 175.922 21.8594 175.922H24.5859C26.0983 175.922 27.3242 177.149 27.3242 178.661C27.3241 180.173 26.0982 181.399 24.5859 181.399H21.8594C18.841 181.399 16.3936 183.847 16.3936 186.865V189.622C16.3936 191.131 15.1702 192.354 13.6611 192.354C12.1521 192.354 10.9287 191.131 10.9287 189.622V186.864C10.9287 183.846 8.4825 181.399 5.46484 181.399H2.73828C1.22599 181.399 9.89424e-05 180.173 0 178.661C0 177.148 1.22668 175.922 2.73926 175.922H5.46484C8.48244 175.921 10.9286 173.475 10.9287 170.458V167.699C10.9289 166.19 12.1522 164.967 13.6611 164.967ZM1044.64 57.9666C1046.42 57.9666 1047.87 59.4131 1047.87 61.1971V64.9178C1047.87 68.2315 1050.56 70.9178 1053.87 70.9178H1057.56C1059.34 70.918 1060.79 72.368 1060.79 74.1561C1060.79 75.9442 1059.34 77.3934 1057.55 77.3934H1053.87C1050.56 77.3934 1047.87 80.0798 1047.87 83.3934V87.1141C1047.87 88.8982 1046.42 90.3445 1044.64 90.3445C1042.86 90.3445 1041.41 88.8982 1041.41 87.1141V83.3934C1041.41 80.0798 1038.72 77.3934 1035.41 77.3934H1031.73C1029.94 77.3931 1028.49 75.944 1028.49 74.1561C1028.49 72.368 1029.94 70.918 1031.73 70.9178H1035.41C1038.72 70.9178 1041.41 68.2315 1041.41 64.9178V61.1971C1041.41 59.4131 1042.86 57.9666 1044.64 57.9666ZM24.1846 68.5594C26.0497 67.6394 28.2614 67.8 29.9678 68.9774C31.6795 70.1547 32.6146 72.1653 32.4219 74.2313C32.2233 76.2972 30.9252 78.0948 29.0205 78.9285C26.1747 80.1771 22.8532 78.9239 21.5381 76.1063C20.223 73.2886 21.4013 69.9369 24.1846 68.5594ZM583.449 14.4813C628.358 9.47837 629.889 73.116 582.798 78.8924C574.742 79.6814 566.658 78.9086 559.714 74.3934C554.175 70.8649 550.314 65.228 549.033 58.7889C547.327 50.4525 549.254 38.8025 554.254 31.908C562.434 20.6337 570.53 17.0632 583.449 14.4813Z" fill="white" style="fill:white;fill-opacity:1;"/>
</svg>
