<svg preserveAspectRatio="none" width="100%" height="100%" overflow="visible" style="display: block;" viewBox="0 0 38.3058 14.94" fill="none" xmlns="http://www.w3.org/2000/svg">
<g id="Skill">
<path id="Vector" d="M35.4658 0.339844H38.3058V14.6198H35.4658V0.339844Z" fill="var(--fill-0, white)"/>
<path id="Vector_2" d="M30.3096 0.339844H33.1496V14.6198H30.3096V0.339844Z" fill="var(--fill-0, white)"/>
<path id="Vector_3" d="M27.9933 2.67984H25.1533V0.339844H27.9933V2.67984ZM25.1533 4.27984H27.9933V14.6198H25.1533V4.27984Z" fill="var(--fill-0, white)"/>
<path id="Vector_4" d="M13.8486 0.339844H16.6886V7.99984L20.2686 4.27984H23.6286L19.7286 8.07984L24.0686 14.6198H20.6286L17.7886 9.99984L16.6886 11.0598V14.6198H13.8486V0.339844Z" fill="var(--fill-0, white)"/>
<path id="Vector_5" d="M3.04077 9.88C3.04077 10.36 3.12744 10.7667 3.30077 11.1C3.4741 11.4333 3.70077 11.7067 3.98077 11.92C4.2741 12.12 4.6141 12.2733 5.00077 12.38C5.38744 12.4733 5.78744 12.52 6.20077 12.52C6.48077 12.52 6.78077 12.5 7.10077 12.46C7.42077 12.4067 7.72077 12.3133 8.00077 12.18C8.28077 12.0467 8.5141 11.8667 8.70077 11.64C8.88744 11.4 8.98077 11.1 8.98077 10.74C8.98077 10.3533 8.8541 10.04 8.60077 9.8C8.36077 9.56 8.04077 9.36 7.64077 9.2C7.24077 9.04 6.78744 8.9 6.28077 8.78C5.7741 8.66 5.26077 8.52667 4.74077 8.38C4.20744 8.24667 3.68744 8.08667 3.18077 7.9C2.6741 7.7 2.22077 7.44667 1.82077 7.14C1.42077 6.83333 1.0941 6.45333 0.840769 6C0.600769 5.53333 0.480769 4.97333 0.480769 4.32C0.480769 3.58667 0.634103 2.95333 0.940769 2.42C1.26077 1.87333 1.6741 1.42 2.18077 1.06C2.68744 0.699999 3.26077 0.433332 3.90077 0.259999C4.54077 0.0866661 5.18077 0 5.82077 0C6.56744 0 7.28077 0.0866661 7.96077 0.259999C8.6541 0.419999 9.26744 0.686666 9.80077 1.06C10.3341 1.43333 10.7541 1.91333 11.0608 2.5C11.3808 3.07333 11.5408 3.77333 11.5408 4.6H8.50077C8.4741 4.17333 8.38077 3.82 8.22077 3.54C8.0741 3.26 7.8741 3.04 7.62077 2.88C7.36744 2.72 7.0741 2.60667 6.74077 2.54C6.42077 2.47333 6.06744 2.44 5.68077 2.44C5.42744 2.44 5.1741 2.46667 4.92077 2.52C4.66744 2.57333 4.4341 2.66667 4.22077 2.8C4.02077 2.93333 3.8541 3.1 3.72077 3.3C3.58744 3.5 3.52077 3.75333 3.52077 4.06C3.52077 4.34 3.5741 4.56667 3.68077 4.74C3.78744 4.91333 3.9941 5.07333 4.30077 5.22C4.62077 5.36667 5.0541 5.51333 5.60077 5.66C6.16077 5.80667 6.88744 5.99333 7.78077 6.22C8.04744 6.27333 8.4141 6.37333 8.88077 6.52C9.36077 6.65333 9.8341 6.87333 10.3008 7.18C10.7674 7.48667 11.1674 7.9 11.5008 8.42C11.8474 8.92667 12.0208 9.58 12.0208 10.38C12.0208 11.0333 11.8941 11.64 11.6408 12.2C11.3874 12.76 11.0074 13.2467 10.5008 13.66C10.0074 14.06 9.38744 14.3733 8.64077 14.6C7.90744 14.8267 7.0541 14.94 6.08077 14.94C5.2941 14.94 4.52744 14.84 3.78077 14.64C3.04744 14.4533 2.3941 14.1533 1.82077 13.74C1.26077 13.3267 0.814103 12.8 0.480769 12.16C0.147436 11.52 -0.0125641 10.76 0.000769228 9.88H3.04077Z" fill="var(--fill-0, white)"/>
</g>
</svg>
